<svg enable-background="new 0 0 45.4 45.4" viewBox="0 0 45.4 45.4" xmlns="http://www.w3.org/2000/svg" xmlns:xlink="http://www.w3.org/1999/xlink"><linearGradient id="a" gradientTransform="matrix(18.975 0 0 -42.6671 4930.9482 18512.8418)" gradientUnits="userSpaceOnUse" x1="-259.172" x2="-259.172" y1="433.8585" y2="432.8585"><stop offset="0" stop-color="#6b7c97"/><stop offset="1" stop-color="#3c4d67"/></linearGradient><linearGradient id="b" gradientTransform="matrix(19.025 0 0 -42.6661 4963.6509 18512.3672)" gradientUnits="userSpaceOnUse" x1="-259.2105" x2="-259.2105" y1="433.8583" y2="432.8583"><stop offset="0" stop-color="#3c4d67"/><stop offset="1" stop-color="#6b7c97"/></linearGradient><linearGradient id="c" gradientTransform="matrix(8.726 0 0 -20.044 9628.1836 7742.4863)" gradientUnits="userSpaceOnUse" x1="-1211.3951" x2="-1211.3951" y1="387.4293" y2="386.4293"><stop offset="0" stop-color="#57a0ad"/><stop offset="1" stop-color="#467a85"/></linearGradient><linearGradient id="d" gradientTransform="matrix(8.679 0 0 -20.029 9561.0518 7736.3823)" gradientUnits="userSpaceOnUse" x1="-1211.2225" x2="-1211.2225" y1="387.4144" y2="386.4144"><stop offset="0" stop-color="#467a85"/><stop offset="1" stop-color="#6aaebb"/></linearGradient><g transform="translate(969.431 35.848)"><g transform="translate(-969.431 -35.848)"><path d="m22.6 44c-.3 0-.6 0-.9-.1s-.5-.2-.8-.3l-15.5-9c-.2-.1-.5-.3-.7-.5-.4-.5-.7-1-.9-1.6-.1-.3-.1-.6-.1-.9v-18c0-.3 0-.6.1-.9.2-.6.5-1.1.9-1.6.2-.2.4-.4.7-.5l15.6-8.8c.5-.3 1.1-.4 1.7-.4z" fill="url(#a)"/><path d="m22.7 44v-42.7h.1c.3 0 .6 0 .9.1s.6.2.8.3l15.5 9c.2.1.5.3.7.5.4.5.7 1 .9 1.6.1.3.1.6.1.9v18c0 .3 0 .6-.1.9-.2.6-.5 1.1-.9 1.6-.2.2-.4.4-.7.5l-15.5 9c-.3.1-.5.2-.8.3-.4 0-.7 0-1 0z" fill="url(#b)"/></g><path d="m-958.8-20.1v13.9l12 7 12-7v-13.9l-12-6.9z" fill="#fff"/><path d="m-946.8-3.1v-3.8l5.4-3.1v-6.2l-5.3-3.1v-3.8h.1l8.6 5v10z" fill="url(#c)"/><path d="m-946.8-3.1-8.7-5v-10l8.7-5v3.8l-5.4 3.1v6.2l5.4 3.1z" fill="url(#d)"/></g></svg>