<svg enable-background="new 0 0 85 85" viewBox="0 0 85 85" xmlns="http://www.w3.org/2000/svg" xmlns:xlink="http://www.w3.org/1999/xlink"><linearGradient id="a" gradientTransform="matrix(32.023 0 0 -72.0002 8070.665 32622.7559)" gradientUnits="userSpaceOnUse" x1="-251.3596" x2="-251.3596" y1="453.0826" y2="452.0826"><stop offset="0" stop-color="#6b7c97"/><stop offset="1" stop-color="#3c4d67"/></linearGradient><linearGradient id="b" gradientTransform="matrix(32.1069 0 0 -72 8124.5044 32622.6855)" gradientUnits="userSpaceOnUse" x1="-251.3809" x2="-251.3809" y1="453.0826" y2="452.0826"><stop offset="0" stop-color="#3c4d67"/><stop offset="1" stop-color="#6b7c97"/></linearGradient><linearGradient id="c" gradientTransform="matrix(14.729 0 0 -33.825 16915.8477 13896.0537)" gradientUnits="userSpaceOnUse" x1="-1211.2576" x2="-1211.2576" y1="411.2937" y2="410.2937"><stop offset="0" stop-color="#57a0ad"/><stop offset="1" stop-color="#467a85"/></linearGradient><linearGradient id="d" gradientTransform="matrix(14.646 0 0 -33.802 16799.1504 13886.3643)" gradientUnits="userSpaceOnUse" x1="-1211.1576" x2="-1211.1576" y1="411.2861" y2="410.2861"><stop offset="0" stop-color="#467a85"/><stop offset="1" stop-color="#6aaebb"/></linearGradient><g transform="translate(-314.661 -14.715)"><path d="m323.4 33.7c-2 1.3-3.3 3.5-3.4 5.8v35.2c.1 2.4 1.4 4.5 3.4 5.8l30.4 17.6c2.1 1.1 4.6 1.1 6.7 0l30.5-17.5c2-1.3 3.2-3.5 3.4-5.8v-35.2c-.1-2.4-1.4-4.5-3.4-5.8l-30.3-17.5c-2.1-1.1-4.6-1.1-6.8 0z" fill="#2c3b52"/><g transform="translate(1289.431 55.848)"><g transform="translate(-969.431 -35.848)"><path d="m37.4 72.7c-.5 0-1-.1-1.5-.2s-.9-.3-1.4-.5l-26.2-15.1c-.4-.2-.8-.6-1.1-.9-.7-.8-1.2-1.7-1.5-2.7-.1-.5-.2-1-.2-1.4v-30.4c0-.5.1-1 .2-1.4.3-1 .8-1.9 1.6-2.7.3-.4.7-.7 1.1-.9l26.2-15.1c.9-.5 1.8-.7 2.8-.7z" fill="url(#a)"/><path d="m37.5 72.7-.1-72h.2c.5 0 1 .1 1.5.2s.9.3 1.4.5l26.1 15c.4.2.8.6 1.1.9.7.8 1.2 1.7 1.5 2.7.1.5.2 1 .2 1.4v30.3c0 .5-.1 1-.2 1.4-.3 1-.8 1.9-1.5 2.7-.3.4-.7.7-1.1.9l-26.2 15.3c-.4.2-.9.4-1.4.5-.5.2-1 .2-1.5.2z" fill="url(#b)"/></g><path d="m-952.4-10.8v23.5l20.3 11.8 20.3-11.8v-23.5l-20.2-11.7z" fill="#fff"/><path d="m-932.1 17.9-.1-6.5 9-5.2v-10.5l-9-5.2h-.1v-6.4l.1-.1 14.6 8.4v17z" fill="url(#c)"/><path d="m-932.1 17.9-14.6-8.5v-16.9l14.6-8.4v6.5l-9.1 5.2v10.4l9 5.2h.1z" fill="url(#d)"/></g></g></svg>